<svg width="95" height="53" fill="none" xmlns="http://www.w3.org/2000/svg">
    <path d="M88.842 2.772c.447-.97.895-1.943 1.573-2.772.65.138.555.786.458 1.453-.047.317-.094.638-.062.911.252-.068.35-.292.449-.515.115-.262.23-.525.596-.537.546.295.329.879.108 1.47-.115.31-.232.623-.24.898.28-.113.423-.316.555-.503.174-.246.328-.466.751-.418 1.158.13.688 1.188.252 2.167-.159.356-.313.702-.382.99.233-.009.373-.11.514-.212.189-.137.378-.274.793-.184.542.609.103 1.18-.288 1.689-.147.192-.288.375-.366.548.084.091.239.111.393.131.154.02.308.04.392.13.014.799-.288 1.278-.59 1.758-.171.272-.342.544-.456.874.037.008.076.015.114.021.22.04.442.078.409.374-.142.414-.434.678-.726.94-.282.255-.565.51-.71.9.07.103.176.172.282.241.184.12.37.24.369.548-.42.673-.66 1.38-.894 2.067-.314.924-.617 1.813-1.326 2.536-.03.192.055.27.14.348.097.09.195.179.12.44-.157.453-.493.726-.83.999-.218.177-.437.354-.607.58-.03.193.056.27.14.349.098.089.195.178.121.44-.622.274-.937.857-1.253 1.439-.207.382-.414.764-.708 1.059.367.025.557.23.523.658-.4.485-.555 1.06-.708 1.623-.2.737-.394 1.455-1.121 1.928.179-.014.155.174.132.363-.014.111-.028.223 0 .294-.299.142-.576.298-.786.527.151.154.148.464.131.788-.445.058-.55.457-.656.855-.105.397-.21.795-.651.854-.048.201.009.298.065.395a.458.458 0 0 1 .066.395c-.626-.015-.735.488-.655 1.184-.658.215-.987.762-1.316 1.31-.278.463-.557.927-1.034 1.189v.788c-.62.117-.88.596-1.14 1.076-.232.429-.463.858-.952 1.027-.148.24-.208.566-.269.893-.035.19-.07.38-.122.553a2.784 2.784 0 0 1-.347.14c-.301.106-.6.21-.698.52.738 1.558 2.464 1.21 4.282.843.665-.134 1.343-.271 1.989-.318 1.6-.115 1.8.778 1.999 1.67.1.452.201.904.483 1.224a.654.654 0 0 1-.053.481c-.04.089-.078.177-.077.306.2-.053.258.035.317.124.045.07.091.14.205.141-.028.522.12.956.265 1.385.121.358.241.713.258 1.113.08 1.957-.59 3.168-2.352 4.076-.335-.008-.495.135-.688.309-.127.115-.27.243-.488.35-2.453.096-4.86-1.065-7.012-2.102-.28-.136-.557-.27-.83-.398-.226-.393-.37-.814-.51-1.216-.24-.699-.462-1.34-1.056-1.677-.62-.35-1.499-.503-2.339-.65-.469-.081-.926-.16-1.319-.271-3.887-1.085-6.257-2.859-8.755-5.127-1.022-.929-1.972-2.012-2.931-3.107-1.993-2.274-4.032-4.6-6.87-5.704-.337-.13-.742-.275-1.14-.417-.52-.185-1.027-.366-1.344-.503-1.767-.768-6.27-1.183-6.27-1.183s-1.432.362-1.699-.659c.71-.15 1.399-.53 2.081-.905.785-.433 1.564-.86 2.362-.935.936-.088 1.572.346 2.29.835.301.205.617.42.976.611.912.486 1.905.852 2.876 1.183 1.402.481 2.661 1.143 3.754 1.717.69.363 1.313.69 1.864.916.94.381 2.534.827 3.265.656 1.138-.268 2.298-2.709 2.952-4.086l.185-.386c.533-1.1 1.086-2.962 1.513-4.403.338-1.14.598-2.015.708-2.04.83.259.688 1.39.564 2.384-.065.518-.125.998-.04 1.298.248-.289.421-.654.594-1.018.25-.525.499-1.05.973-1.349 1.047.243.634 1.271.287 2.138-.136.339-.262.653-.287.886.474-.303.783-.77 1.093-1.238.317-.48.634-.959 1.128-1.26.55.957-.017 1.738-.538 2.455-.341.47-.663.911-.638 1.358 1.536-1.94 2.803-4.078 4.053-6.187 1.05-1.772 2.089-3.524 3.265-5.122.48-.653 1.026-1.203 1.593-1.772.465-.469.945-.95 1.412-1.515.715-.864 1.285-1.846 1.855-2.828.485-.835.97-1.67 1.544-2.432.506-.673 1.097-1.265 1.682-1.85.669-.67 1.33-1.33 1.844-2.094.465-.691.818-1.458 1.172-2.226zM7.588 19H4.62c-1.475 0-2.613-.392-3.416-1.176C.401 17.04 0 15.911 0 14.436V5.56c0-1.475.401-2.604 1.204-3.388C2.007 1.388 3.145.996 4.62.996h2.968c1.456 0 2.585.401 3.388 1.204.803.784 1.204 1.904 1.204 3.36v.84c0 .41-.196.616-.588.616h-2.38c-.392 0-.588-.205-.588-.616v-.672c0-.597-.121-1.017-.364-1.26-.243-.261-.663-.392-1.26-.392H5.18c-.579 0-.999.13-1.26.392-.243.243-.364.663-.364 1.26v8.54c0 .597.121 1.027.364 1.288.261.243.681.364 1.26.364H7c.597 0 1.017-.121 1.26-.364.243-.261.364-.69.364-1.288v-1.764c0-.205-.103-.308-.308-.308h-1.68c-.392 0-.588-.196-.588-.588V9.704c0-.392.196-.588.588-.588h4.9c.43 0 .644.215.644.644v4.676c0 1.456-.401 2.585-1.204 3.388C10.173 18.608 9.044 19 7.588 19zM24.75.996h2.352c.41 0 .616.187.616.56v12.88c0 1.456-.41 2.585-1.232 3.388-.803.784-1.932 1.176-3.388 1.176h-3.08c-1.475 0-2.614-.392-3.416-1.176-.803-.784-1.204-1.913-1.204-3.388V1.584c0-.392.196-.588.588-.588h2.38c.392 0 .588.196.588.588v12.684c0 .597.121 1.027.364 1.288.261.243.681.364 1.26.364h1.932c.597 0 1.017-.121 1.26-.364.261-.261.392-.69.392-1.288V1.584c0-.392.196-.588.588-.588zM30.758 13.848v.56c0 1.456.41 2.585 1.232 3.388.821.803 1.96 1.204 3.416 1.204h3.052c1.456 0 2.594-.401 3.416-1.204.821-.803 1.232-1.932 1.232-3.388v-.952c0-1.12-.224-2.035-.672-2.744-.43-.728-.97-1.232-1.624-1.512-1.232-.504-2.642-.821-4.228-.952-1.53-.13-2.296-.635-2.296-1.512v-.532c0-.84.13-1.4.392-1.68.28-.299.802-.448 1.568-.448h1.092c.746 0 1.26.13 1.54.392.28.261.42.756.42 1.484v.168c0 .392.196.588.588.588h2.38c.392 0 .588-.196.588-.588v-.532c0-1.456-.41-2.585-1.232-3.388-.822-.803-1.97-1.204-3.444-1.204h-2.8c-1.456 0-2.595.401-3.416 1.204-.822.803-1.232 1.932-1.232 3.388v.98c0 1.157.214 2.11.644 2.856.448.728.998 1.223 1.652 1.484.653.243 1.353.448 2.1.616.765.15 1.474.252 2.128.308.653.056 1.194.233 1.624.532.448.28.672.69.672 1.232v.336c0 .765-.15 1.288-.448 1.568-.28.28-.784.42-1.512.42h-1.316c-.747 0-1.26-.13-1.54-.392-.28-.261-.42-.747-.42-1.456v-.224c0-.392-.196-.588-.588-.588h-2.38c-.392 0-.588.196-.588.588zM45.852 14.408v-.56c0-.392.196-.588.588-.588h2.38c.392 0 .587.196.587.588v.224c0 .71.14 1.195.42 1.456.28.261.794.392 1.54.392h1.317c.727 0 1.232-.14 1.512-.42.298-.28.448-.803.448-1.568v-.336c0-.541-.224-.952-.672-1.232-.43-.299-.971-.476-1.625-.532a20.18 20.18 0 0 1-2.128-.308 16.33 16.33 0 0 1-2.1-.616c-.653-.261-1.203-.756-1.651-1.484-.43-.747-.645-1.699-.645-2.856v-.98c0-1.456.411-2.585 1.233-3.388.82-.803 1.96-1.204 3.416-1.204h2.8c1.474 0 2.622.401 3.444 1.204.82.803 1.231 1.932 1.231 3.388v.532c0 .392-.196.588-.588.588h-2.38c-.392 0-.587-.196-.587-.588v-.168c0-.728-.14-1.223-.42-1.484-.28-.261-.794-.392-1.54-.392h-1.093c-.765 0-1.288.15-1.567.448-.262.28-.392.84-.392 1.68v.532c0 .877.765 1.381 2.295 1.512 1.587.13 2.997.448 4.229.952.653.28 1.194.784 1.623 1.512.448.71.672 1.624.672 2.744v.952c0 1.456-.41 2.585-1.231 3.388-.822.803-1.96 1.204-3.417 1.204H50.5c-1.456 0-2.594-.401-3.416-1.204-.82-.803-1.231-1.932-1.231-3.388z" fill="#192B3F"/>
    <path d="M65.09 18.412V1.584c0-.392-.197-.588-.589-.588h-2.38c-.392 0-.588.196-.588.588v16.828c0 .392.196.588.588.588h2.38c.392 0 .588-.196.588-.588z" fill="#192B3F"/>
</svg>
